<svg xmlns="http://www.w3.org/2000/svg" width="38" height="38" viewBox="0 0 38 38" fill="none">
  <path d="M32.211 20.2432L19.8944 6.04883C19.7831 5.92039 19.6454 5.81738 19.4908 5.74678C19.3362 5.67619 19.1682 5.63965 18.9982 5.63965C18.8282 5.63965 18.6603 5.67619 18.5056 5.74678C18.351 5.81738 18.2134 5.92039 18.102 6.04883L5.78914 20.2432C5.75193 20.2859 5.72781 20.3385 5.71964 20.3946C5.71147 20.4507 5.7196 20.508 5.74306 20.5596C5.76653 20.6112 5.80433 20.655 5.85198 20.6858C5.89962 20.7165 5.9551 20.7329 6.0118 20.733H9.01766C9.18836 20.733 9.35164 20.6588 9.46668 20.5289L17.5899 11.1662V32.0625C17.5899 32.2258 17.7235 32.3594 17.8868 32.3594H20.1134C20.2766 32.3594 20.4102 32.2258 20.4102 32.0625V11.1662L28.5335 20.5289C28.6448 20.6588 28.8081 20.733 28.9825 20.733H31.9884C32.2407 20.733 32.378 20.4361 32.211 20.2432Z" fill="#D46BFE"/>
</svg>