<svg width="23" height="22" viewBox="0 0 23 22" fill="none" xmlns="http://www.w3.org/2000/svg">
<path fill-rule="evenodd" clip-rule="evenodd" d="M7.12992 0.066C8.30292 0.012 8.67692 0 11.6649 0C14.6529 0 15.0269 0.013 16.1989 0.066C17.3709 0.119 18.1709 0.306 18.8709 0.577C19.6039 0.854 20.2689 1.287 20.8189 1.847C21.3789 2.396 21.8109 3.06 22.0869 3.794C22.3589 4.494 22.5449 5.294 22.5989 6.464C22.6529 7.639 22.6649 8.013 22.6649 11C22.6649 13.988 22.6519 14.362 22.5989 15.535C22.5459 16.705 22.3589 17.505 22.0869 18.205C21.8109 18.9391 21.3782 19.6042 20.8189 20.154C20.2689 20.714 19.6039 21.146 18.8709 21.422C18.1709 21.694 17.3709 21.88 16.2009 21.934C15.0269 21.988 14.6529 22 11.6649 22C8.67692 22 8.30292 21.987 7.12992 21.934C5.95992 21.881 5.15992 21.694 4.45992 21.422C3.72584 21.146 3.06074 20.7133 2.51092 20.154C1.9513 19.6047 1.51823 18.9399 1.24192 18.206C0.970917 17.506 0.784917 16.706 0.730917 15.536C0.676917 14.361 0.664917 13.987 0.664917 11C0.664917 8.012 0.677917 7.638 0.730917 6.466C0.783917 5.294 0.970917 4.494 1.24192 3.794C1.51864 3.06008 1.95204 2.39531 2.51192 1.846C3.06096 1.2865 3.72539 0.853443 4.45892 0.577C5.15892 0.306 5.95892 0.12 7.12892 0.066H7.12992ZM16.1099 2.046C14.9499 1.993 14.6019 1.982 11.6649 1.982C8.72792 1.982 8.37992 1.993 7.21992 2.046C6.14692 2.095 5.56492 2.274 5.17692 2.425C4.66392 2.625 4.29692 2.862 3.91192 3.247C3.54696 3.60205 3.2661 4.03428 3.08992 4.512C2.93892 4.9 2.75992 5.482 2.71092 6.555C2.65792 7.715 2.64692 8.063 2.64692 11C2.64692 13.937 2.65792 14.285 2.71092 15.445C2.75992 16.518 2.93892 17.1 3.08992 17.488C3.26592 17.965 3.54692 18.398 3.91192 18.753C4.26692 19.118 4.69992 19.399 5.17692 19.575C5.56492 19.726 6.14692 19.905 7.21992 19.954C8.37992 20.007 8.72692 20.018 11.6649 20.018C14.6029 20.018 14.9499 20.007 16.1099 19.954C17.1829 19.905 17.7649 19.726 18.1529 19.575C18.6659 19.375 19.0329 19.138 19.4179 18.753C19.7829 18.398 20.0639 17.965 20.2399 17.488C20.3909 17.1 20.5699 16.518 20.6189 15.445C20.6719 14.285 20.6829 13.937 20.6829 11C20.6829 8.063 20.6719 7.715 20.6189 6.555C20.5699 5.482 20.3909 4.9 20.2399 4.512C20.0399 3.999 19.8029 3.632 19.4179 3.247C19.0628 2.88207 18.6306 2.60121 18.1529 2.425C17.7649 2.274 17.1829 2.095 16.1099 2.046ZM10.2599 14.391C11.0446 14.7176 11.9183 14.7617 12.7318 14.5157C13.5454 14.2697 14.2483 13.7489 14.7205 13.0422C15.1927 12.3356 15.405 11.4869 15.321 10.6411C15.237 9.79534 14.8619 9.00497 14.2599 8.405C13.8762 8.02148 13.4121 7.72781 12.9012 7.54515C12.3904 7.36248 11.8453 7.29536 11.3054 7.34862C10.7655 7.40187 10.2441 7.57418 9.77872 7.85313C9.31337 8.13208 8.91566 8.51074 8.61422 8.96185C8.31278 9.41296 8.11511 9.92529 8.03543 10.462C7.95576 10.9986 7.99607 11.5463 8.15346 12.0655C8.31084 12.5847 8.5814 13.0626 8.94564 13.4647C9.30988 13.8668 9.75874 14.1832 10.2599 14.391ZM7.66692 7.002C8.19194 6.47697 8.81524 6.0605 9.50121 5.77636C10.1872 5.49222 10.9224 5.34597 11.6649 5.34597C12.4074 5.34597 13.1426 5.49222 13.8286 5.77636C14.5146 6.0605 15.1379 6.47697 15.6629 7.002C16.1879 7.52702 16.6044 8.15032 16.8886 8.8363C17.1727 9.52228 17.3189 10.2575 17.3189 11C17.3189 11.7425 17.1727 12.4777 16.8886 13.1637C16.6044 13.8497 16.1879 14.473 15.6629 14.998C14.6026 16.0583 13.1645 16.654 11.6649 16.654C10.1654 16.654 8.72725 16.0583 7.66692 14.998C6.60658 13.9377 6.01089 12.4995 6.01089 11C6.01089 9.50046 6.60658 8.06234 7.66692 7.002ZM18.5729 6.188C18.703 6.06527 18.8072 5.91768 18.8792 5.75397C18.9513 5.59027 18.9897 5.41377 18.9923 5.23493C18.9949 5.05609 18.9616 4.87855 18.8944 4.71281C18.8272 4.54707 18.7274 4.39651 18.6009 4.27004C18.4744 4.14357 18.3238 4.04376 18.1581 3.97652C17.9924 3.90928 17.8148 3.87598 17.636 3.87858C17.4571 3.88119 17.2807 3.91965 17.1169 3.9917C16.9532 4.06374 16.8056 4.1679 16.6829 4.298C16.4442 4.55103 16.3135 4.88712 16.3186 5.23493C16.3237 5.58274 16.4641 5.91488 16.7101 6.16084C16.956 6.40681 17.2882 6.54723 17.636 6.5523C17.9838 6.55737 18.3199 6.42669 18.5729 6.188Z" fill="#B6B6DD"/>
</svg>
