<svg width="25" height="24" viewBox="0 0 25 24" fill="none" xmlns="http://www.w3.org/2000/svg">
<g clip-path="url(#clip0_51_404)">
<path d="M24.1649 6.50695C24.029 6.02219 23.7643 5.5833 23.3989 5.23695C23.0232 4.87996 22.5627 4.62459 22.0609 4.49495C20.1829 3.99995 12.6589 3.99995 12.6589 3.99995C9.52225 3.96427 6.38635 4.12123 3.26892 4.46995C2.76711 4.60917 2.30749 4.87024 1.93092 5.22995C1.56092 5.58595 1.29292 6.02495 1.15292 6.50595C0.816617 8.3177 0.653216 10.1573 0.664924 12C0.652924 13.841 0.815924 15.68 1.15292 17.494C1.28992 17.973 1.55692 18.41 1.92792 18.763C2.29892 19.116 2.76092 19.371 3.26892 19.506C5.17192 20 12.6589 20 12.6589 20C15.7996 20.0357 18.9395 19.8787 22.0609 19.53C22.5627 19.4003 23.0232 19.145 23.3989 18.788C23.7642 18.4417 24.0286 18.0027 24.1639 17.518C24.509 15.7069 24.6768 13.8665 24.6649 12.023C24.6909 10.1716 24.5233 8.32252 24.1649 6.50595V6.50695ZM10.2669 15.424V8.57695L16.5269 12.001L10.2669 15.424Z" fill="#B6B6DD"/>
</g>
<defs>
<clipPath id="clip0_51_404">
<rect width="24" height="24" fill="white" transform="translate(0.664917)"/>
</clipPath>
</defs>
</svg>
